<svg xmlns="http://www.w3.org/2000/svg"  viewBox="0 0 48 48" width="420px" height="420px" fill-rule="evenodd" clip-rule="evenodd" baseProfile="basic"><linearGradient id="Bzs3Q20SDmnq8e419w3cTa" x1="40.097" x2="7.182" y1="297.569" y2="333.871" gradientTransform="matrix(1 0 0 -1 0 340)" gradientUnits="userSpaceOnUse"><stop offset="0" stop-color="#823af3"/><stop offset=".36" stop-color="#4b66e1"/><stop offset=".906" stop-color="#01f1c4"/></linearGradient><path fill="url(#Bzs3Q20SDmnq8e419w3cTa)" fill-rule="evenodd" d="M37.722,6.506H9.073c-1.758,0-3.183,1.425-3.183,3.183	v28.649c0,1.758,1.425,3.183,3.183,3.183h28.649c1.758,0,3.183-1.425,3.183-3.183V9.689C40.905,7.931,39.48,6.506,37.722,6.506z" clip-rule="evenodd"/><path fill="none" stroke="#1d1d1b" stroke-miterlimit="10" d="M30.123,30.343c-1.176,1.081-1.94,1.825-3.651,2.699 c-0.98,0.489-2.083,0.784-3.123,0.784c-3.12,0-4.642-2.873-4.945-5.354c-0.777-6.366,4.816-15.115,8.716-15.115 c0.91,0,1.722,0.791,1.873,2.024c0.234,1.919,0.196,3.279-1.788,4.936c-0.217,0.181-0.281,0.474-0.169,0.648 c0.169,0.259,0.702,0.286,1.779-0.259c2.11-1.065,2.871-2.709,2.639-4.612c-0.259-2.112-2.102-3.88-4.573-3.88 c-1.202,0-2.523,0.359-3.704,1.078c-5.143,3.133-8.462,10.283-7.795,15.735c0.211,1.73,0.93,3.624,2.289,4.897 c0.916,0.848,2.571,1.893,4.523,1.893c2.113,0,3.897-0.816,5.497-1.826c1.085-0.695,1.992-1.535,2.758-2.395 C31.707,30.426,30.803,29.701,30.123,30.343z" opacity=".07"/><path fill="#1d1d1b" d="M26.882,12.212c2.472,0,4.315,1.768,4.573,3.88c0.232,1.904-0.528,3.548-2.639,4.612 c-0.619,0.313-1.059,0.438-1.353,0.438c-0.217,0-0.355-0.068-0.427-0.178c-0.112-0.173-0.049-0.467,0.169-0.648 c1.984-1.658,2.022-3.018,1.788-4.936c-0.151-1.233-0.964-2.024-1.873-2.024c-3.9,0-9.494,8.75-8.716,15.115 c0.303,2.481,1.825,5.354,4.945,5.354c1.04,0,2.142-0.294,3.123-0.784c1.711-0.875,2.475-1.618,3.651-2.699 c0.175-0.165,0.364-0.239,0.528-0.239c0.474,0,0.733,0.623-0.201,1.491c-0.766,0.86-1.674,1.701-2.758,2.395 c-1.6,1.01-3.385,1.826-5.497,1.826c-1.951,0-3.607-1.045-4.523-1.893c-1.358-1.273-2.078-3.167-2.289-4.897 c-0.667-5.453,2.652-12.602,7.795-15.735C24.358,12.571,25.68,12.212,26.882,12.212 M26.882,11.212 c-1.428,0-2.928,0.434-4.224,1.223c-5.291,3.223-9,10.72-8.267,16.711c0.269,2.203,1.215,4.21,2.597,5.506 c0.705,0.653,2.616,2.164,5.206,2.164c2.594,0,4.684-1.13,6.031-1.98c1.051-0.673,2.011-1.504,2.941-2.542 c1.126-1.069,0.942-1.965,0.81-2.303c-0.212-0.539-0.732-0.887-1.325-0.887c-0.433,0-0.864,0.182-1.214,0.512l-0.175,0.161 c-1.052,0.969-1.746,1.609-3.245,2.375c-0.868,0.433-1.819,0.674-2.668,0.674c-2.514,0-3.7-2.411-3.952-4.475 c-0.491-4.017,1.758-8.949,4.234-11.745c1.265-1.429,2.537-2.249,3.49-2.249c0.368,0,0.788,0.393,0.881,1.145 c0.219,1.796,0.149,2.722-1.437,4.047c-0.605,0.503-0.764,1.345-0.367,1.958c0.155,0.239,0.524,0.635,1.266,0.635 c0.488,0,1.078-0.178,1.804-0.546c2.349-1.185,3.478-3.183,3.18-5.626C32.116,13.258,29.723,11.212,26.882,11.212L26.882,11.212z" opacity=".05"/><path fill="#fff" fill-rule="evenodd" d="M30.123,30.343c-1.176,1.081-1.94,1.825-3.651,2.699	c-0.98,0.489-2.083,0.784-3.123,0.784c-3.12,0-4.642-2.873-4.945-5.354c-0.777-6.366,4.816-15.115,8.716-15.115	c0.91,0,1.722,0.791,1.873,2.024c0.234,1.919,0.196,3.279-1.788,4.936c-0.217,0.181-0.281,0.474-0.169,0.648	c0.169,0.259,0.702,0.286,1.779-0.259c2.11-1.065,2.871-2.709,2.639-4.612c-0.259-2.112-2.102-3.88-4.573-3.88	c-1.202,0-2.523,0.359-3.704,1.078c-5.143,3.133-8.462,10.283-7.795,15.735c0.211,1.73,0.93,3.624,2.289,4.897	c0.916,0.848,2.571,1.893,4.523,1.893c2.113,0,3.897-0.816,5.497-1.826c1.085-0.695,1.992-1.535,2.758-2.395	C31.707,30.426,30.803,29.701,30.123,30.343z" clip-rule="evenodd"/></svg>